<?xml version="1.0" standalone="no"?>
<!DOCTYPE svg PUBLIC "-//W3C//DTD SVG 1.1//EN" "http://www.w3.org/Graphics/SVG/1.1/DTD/svg11.dtd">
<svg xmlns="http://www.w3.org/2000/svg">
<metadata>Generated by Fontastic.me</metadata>
<defs>
<font id="untitled-font-1" horiz-adv-x="512">
<font-face font-family="untitled-font-1" units-per-em="512" ascent="480" descent="-32"/>
<missing-glyph horiz-adv-x="512" />

<glyph unicode="&#97;" d="M385 254c0 0 11 1 21 14 5 7 21 38-9 49-30 12-46-23-38-41 7-18 15-20 20-22l-2-5 0-1 10 0 0 2z m-40 159c0 0 14 7 20 30 3 12 7 62-39 60-47-1-48-55-29-76 20-20 32-17 39-17l1-8 1-2 13 6-1 2z m60-61l-2-3 21-8 2 2 1 12c11 0 31-4 62 29 32 33 29 120-45 122-74 3-68-78-63-97 9-38 32-48 32-48z m-119-128c0 0 6 3 9 12 1 5 3 26-16 25-20 0-20-23-12-31 8-8 13-7 16-7l0-4 1 0 5 2 0 1z m55 88c0 0 14-3 31 11 8 7 38 42 3 65-35 24-65-15-61-41 3-25 14-30 19-34l-4-5 0-2 13-3 0 2z m-30-59l1-1 8 2 0 1-2 4c4 2 11 5 14 23 3 17-17 45-41 30-25-16-5-41 0-46 11-10 21-8 21-8z m138 11l0-2 11 0 1 1-2 6c5 2 15 3 24 23 10 20-5 60-40 49-34-10-19-46-14-54 11-16 23-17 23-17z m-123-45c0 0 5-4 14-3 5 1 23 8 15 24-8 16-28 8-32-2-4-11-1-15 1-17l-3-2 0 0 4-4 0 1z m-61-87c0 0 4 0 7 5 2 2 8 14-3 18-11 4-16-9-14-15 3-7 6-7 8-8l-1-2 0 0 4 0 0 0z m41 4c0 0 3 2 4 7 0 2 0 13-10 12-9-1-9-12-5-16 5-4 7-4 9-4l0-1 0-1 3 2 0 0z m16 20c0 0 4-1 10 4 3 2 13 13 2 21-11 8-21-4-21-13 1-8 5-10 6-11l-1-2 0 0 4-1 0 0z m-42 2c0 0 4-2 10 1 3 2 13 11 4 20-9 8-20-2-20-10 0-7 2-9 4-11l-1-1-1-1 4-1 0 0z m41 45c-1 7-5 18-19 15-6-1-10-5-12-9l-1 0c-26 4-57 6-89 6l0-8c32 0 63-3 88-7l2 0c0-5 3-10 7-13 9-6 13-4 16-4l1-3 0 0 5 3-1 0-2 2c0 0 3 3 5 9l1-1c28-7 45-17 45-29 0-23-74-42-166-42-91 0-166 19-166 42 0 24 74 43 165 43l0 8c-99 0-179-21-179-47l0-32 0-74 0-2c0-4 2-9 7-13l0 0 0 15c0 8 5 16 10 16 5 0 9-8 9-16l0-26 0-1c2 0 3-1 5-2l1 0 0 15c0 9 5 16 10 16 6 0 10-7 10-16l0-21 1-1c3 0 5-1 8-2l1 0 0 15c0 9 5 16 11 16 6 0 11-7 11-16l0-19 1 0c2-1 4-1 6-1l1 0 0 15c0 9 5 16 12 16 6 0 12-7 12-16l0-18 0 0c3-1 7-1 10-1l1 0 0 17c0 6 5 13 13 13 7 0 12-7 12-16l0-16 1 0c4 0 9 0 13 0l1 0 0 15c0 9 6 16 13 16 8 0 14-7 14-16l0-15 1 0c4 0 9 0 13 0l1 0 0 17c0 9 5 16 12 16 8 0 13-7 13-16l0-15 1 0c3 0 6 0 9 1l1 0 0 18c0 8 6 16 12 16 7 0 12-8 12-16l0-15 1 0c2 0 4 0 6 1l1 0 0 19c0 9 5 16 11 16 6 0 11-7 11-16l0-15 1 0c2 1 5 2 8 2l1 1 0 21c0 9 4 16 10 16 5 0 10-7 10-16l0-15 0 0c2 1 4 2 6 2l0 1 0 25c0 9 4 16 9 16 5 0 10-7 10-16l0-14 0 0c4 4 7 9 7 13l0 108c0 14-23 26-60 35z"/>
<glyph unicode="&#109;" d="M102 461l52 0 0-51-52 0z m103 0l51 0 0-51-51 0z m102 0l51 0 0-51-51 0z m103 0l51 0 0-51-51 0z m-359-51l51 0 0-52-51 0z m103 0l51 0 0-52-51 0z m102 0l51 0 0-52-51 0z m102 0l52 0 0-52-52 0z m-256-52l52 0 0-51-52 0z m103 0l51 0 0-51-51 0z m102 0l51 0 0-51-51 0z m103 0l51 0 0-51-51 0z m-359-51l51 0 0-51-51 0z m103 0l51 0 0-51-51 0z m102 0l51 0 0-51-51 0z m102 0l52 0 0-51-52 0z m-256-51l52 0 0-51-52 0z m103 0l51 0 0-51-51 0z m102 0l51 0 0-51-51 0z m103 0l51 0 0-51-51 0z m-359-51l51 0 0-51-51 0z m103 0l51 0 0-51-51 0z m102 0l51 0 0-51-51 0z m102 0l52 0 0-51-52 0z m-256-51l52 0 0-52-52 0z m103 0l51 0 0-52-51 0z m102 0l51 0 0-52-51 0z m103 0l51 0 0-52-51 0z m-359-52l51 0 0-51-51 0z m103 0l51 0 0-51-51 0z m102 0l51 0 0-51-51 0z m102 0l52 0 0-51-52 0z m-358 410l0-512 512 0 0 512z m502-502l-492 0 0 492 492 0z m-456 456l0-420 420 0 0 420z m412-412l-404 0 0 404 404 0z"/>
<glyph unicode="&#110;" d="M30 482c-30-30-30-60-30-60l301-302 45 16 121-121c9-9 15-15 27-15 4 0 9 0 13 5 5 4 5 9 5 13 0 12-7 19-15 27l-121 121 16 45-302 301c0 0-30 0-60-30z m151-316c0-25-21-46-45-46-25 0-46 21-46 46 0 25 21 45 46 45 24 0 45-20 45-45z"/>
<glyph unicode="&#112;" d="M388 29c-60-9-50 23-51 60l-3 73-15-70c-3-13-7-26 12-35 13-12-2-28-16-26-44-2-37 27-33 48l2 30c2 20 6 32 7 61l-6 15c-47 12-80 21-116 41l-26-4c-12-2-9-16-11-25l-3-24-22-56-2-5c-1-4-1-20 5-28l11-23c9-13 12-46-13-35l-18 7c-13 5-23 41-28 67l1 37c-11 4-16-62-11-76l11-34c3-11-10-15-19-15-21 0-30 22-35 40l-3 13c-6 21-3 53 8 71l5 12c10 23-2 39-5 50-9 37-16 73 9 109l2 2c-1 3-8 9-13 23-10 31-18 83-6 83l8 0c21 0 15-85 39-79l177-2 31 8c12 3 21 11 31 17l21 13c23-24 43-38 77-50 9-70-1-85-10-126l-4-17c-6-30-8-60-7-91l1-14c0-15 8-16 20-19 7-4 12-19-2-26z m37 424c10-7 22-19 32-29l12-13c8-9 20-8 31-10l4-1c12-6 8-18 4-28l-2-6c-11-27-45-29-68-16l-10 6-4 0-7-5-15-12c-30 13-55 29-75 50l46 57 15 23 3 7 4 8c2 9 14 18 22 14 8-3 14-18 11-26l-2-10z"/>
<glyph unicode="&#113;" d="M63 337c-38-27-63-58-63-81 0-23 25-54 63-82z m386 0l0-163c38 28 63 59 63 82 0 23-25 54-63 81z m-193 67c-54 0-110-18-155-43l0-211c45-25 101-43 155-43 54 0 110 18 155 43l0 211c-45 25-101 43-155 43z m85-175l-16 0 0 19-24 0 0-19-16 0 0 19-25 0 0-19-16 0 0 19-25 0 0-19-15 0 0 19-25 0 0-19-16 0 0 54 16 0 0-19 25 0 0 19 15 0 0-19 25 0 0 19 16 0 0-19 25 0 0 19 16 0 0-19 24 0 0 19 16 0 0-54z"/>
<glyph unicode="&#114;" d="M475 185l-183 0 0 78 69 0c12 0 22 10 22 21l21 36c0 12-9 21-21 21l-91 0 0 1-13 38c0 7-2 11-5 14 0 1 0 2 1 2l-9 4c-1 0-1-1-1-1-3 1-5 1-5 1 0 0-2 0-4-1 0 1 0 1 0 1l-9-4c0 0 0 0 0-1-4-2-7-7-7-15l-13-39-97 0c-12 0-22-9-22-21l24-36c0-11 9-21 21-21l74 0 0-78-190 0c-20 0-37-18-37-40l40-65c0-22 17-39 37-39l361 0c21 0 37 18 37 39l38 65c0 22-17 40-38 40z m-388 188l-9 2 0 0c-1-4-2-8-3-13l9-2c1 4 2 9 3 13z m56 81l-5 8c-4-2-8-4-12-7l6-8c4 3 7 5 11 7z m-20-15l-7 7c-3-4-6-7-9-11l8-6c2 4 5 7 8 10z m-41-91l-10 1c0-4-1-9-1-13l9-1c1 4 1 9 2 13z m14 49l-9 3c-2-4-4-8-5-12l9-3c2 4 3 8 5 12z m140 38c-3 4-6 7-9 10l-7-6c3-3 5-6 8-10z m-128-16l-9 5c-2-3-4-7-6-11l8-5c2 4 4 8 7 11z m133-11l9 4c-2 5-4 8-7 12l-8-5c2-4 4-7 6-11z m-49 60c-4 1-9 2-14 3l-1-10c4 0 8-1 12-3z m-27-7l-1 10c-4-1-9-2-13-3l3-10c3 2 7 3 11 3z m51-6c-3 2-7 5-11 7l-5-8c4-2 7-5 10-7z m-146-236l10 0c0 4 0 8-1 13l-9 0c0-5 0-9 0-13z m9 52l0 3c0 4 0 7 0 10l-10 0c0-3 0-6 0-10 0-1 0-2 0-3z m3-77c-1 3-1 8-1 12l-10 0c0-5 1-10 1-14z m-3 116c0 4 0 8 0 12l-9 1c-1-4-1-9-1-13 0-4 0-9 0-13l10 0c0 4 0 9 0 13z m-10-52c0-5 0-9 0-13l10 0c0 4 0 9 0 13z m368 102l10 2c-1 5-2 9-3 13l-10-2c1-4 2-9 3-13z m15-76l-10 0 0-13 10 0z m-10 26c0-4 0-9 0-13l10 0c0 4 0 9 0 13 0 4 0 9 0 13l-10-1c0-4 0-8 0-12z m-2 38c0-4 1-9 1-13l10 1c-1 4-1 9-2 13z m12-90l-10 0c0-4 0-9 0-13l10 0c0 4 0 8 0 13z m-166 161l-8 5c-2-4-4-7-7-12l9-4c2 4 4 7 6 11z m144-34l10 3c-2 4-4 8-5 12l-9-3c1-4 3-8 4-12z m22-153l-10 0c0-5 0-9 0-13l9 0c1 4 1 8 1 13z m-12-38l9-2c1 4 1 9 2 14l-10 0c0-4-1-9-1-12z m-20 214l9 5c-2 4-4 8-7 11l-8-5c2-3 4-7 6-11z m-99 46l-4 8c-4-2-8-5-12-7l6-8c3 2 7 5 10 7z m-19-15l-7 6c-3-3-6-6-9-10l8-6c2 4 5 7 8 10z m42 22l-1 10c-5-1-9-2-14-3l3-10c4 2 8 3 12 3z m70-26c-2 4-5 7-9 11l-6-7c2-3 5-6 8-10z m-43 33c-5 1-9 2-14 3l-1-10c4 0 8-1 12-3z m24-13c-3 3-7 5-11 7l-5-8c4-2 7-4 10-7z m-16-1z"/>
<glyph unicode="&#115;" d="M381 137c13-21 25-42 37-63 15-25 53-3 39 22-12 21-25 42-37 63-14 25-53 3-39-22z m39 94c-15-20-29-40-43-61-7-10-2-25 8-30 11-7 24-2 31 8 14 20 28 40 42 60 7 10 2 25-8 31-11 7-23 2-30-8z m-69 24c-21-26-42-53-64-79-18-22 14-54 32-32 21 27 43 53 64 79 18 22-13 54-32 32z m-72-97c-7-24-13-47-20-71-8-27 35-39 43-12 7 24 14 47 20 71 8 27-35 39-43 12z m-204 298l13 2-12 24-14-10z m-4 6l15 0 0-6-15 0z m277-120c-31-9-63-17-94-26-20-5-11-36 9-31 31 9 62 18 93 26 20 6 12 37-8 31z m-96-27c-23 3-47 5-71 8-21 2-20-30 0-32 24-3 48-5 71-8 21-2 21 30 0 32-23 3-47 5-71 8-21 2-20-30 0-32 24-3 48-5 71-8 21-2 21 30 0 32z m-242 163c0-2 6-3 12-3 7 0 12 1 12 3 0 1-5 2-12 2-6 0-12-1-12-2z m24 0c0 0 3-5-12-5-15 0-12 5-12 5m363-103c-21-8-41-16-62-25-19-7-11-38 9-31 20 9 41 17 61 25 19 8 11 38-8 31z m-67-2c20 0 36 17 36 36 0 20-16 36-36 36-19 0-35-16-35-36 0-19 16-36 35-36"/>
<glyph unicode="&#116;" d="M121 512c-8 0-10-18-10-32l0-64c0-65 64-98 128-96l0-256c-32 64-128 160-224 128 0 0 80-192 240-192 160 0 240 192 240 192-96 32-192-64-224-128l0 256c64-2 128 31 128 96l0 64c0 14-1 32-9 32-6 0-14-7-23-16l-48-48-48 54c-5 6-8 10-16 10-8 0-11-4-16-10l-48-54-48 48c-8 9-16 16-22 16z"/>
<glyph unicode="&#117;" d="M262 464c0 0 3 0 3 0 4-1 5-3 5-7l-4-10c0 0 11-141 19-193 0 0 3 0 7 0 4 0 7-3 7-7l0-15c0 0 0-1 1-1 0 0 0-3 1-6 0 0 16-57 28-80l10 0c4 0 7-4 7-8l0-15c0-4 0-7 0-8 0 0 65-93 65-93 1-3 3-5 3-8l0-7c0-3-3-6-6-6l-57 0c-3 0-5 3-5 6l0 11c-6 39-45 77-89 77l0 0c-45 0-83-38-89-77l0-11c0-3-2-6-5-6l-57 0c-4 0-6 3-6 6l0 6c0 3 1 5 3 7 0 0 64 96 64 96 0 0 0 4 0 8l0 14c0 4 3 8 8 8l10 0c11 23 27 80 27 80 1 3 1 5 2 6 0 0 0 1 0 1l0 15c0 4 3 7 7 7 4 0 7 0 7 0 8 52 19 193 19 193l-5 10c0 4 2 6 6 7 0 0 3 0 3 0l4 46c0 2 0 2 2 2 1 0 1 0 2-2z m21-317c3 0 5 3 4 6l-16 57c0 3-4 6-7 6l-14 0c-4 0-7-3-8-6l-15-57c-1-3 1-6 4-6z"/>
<glyph unicode="&#118;" d="M281 512l-217 0 0-512 99 0 0 168 114 0c86 0 169 73 169 172 0 87-70 172-165 172z m-6-250l-111 0 0 155 112 0c36 0 73-34 73-78 0-45-34-77-74-77z"/>
<glyph unicode="&#119;" d="M244 279c0 5-10 113-10 113 0 0-32-28-114-38-83-10-120 9-120 9 0 0 16-106 17-112 10-80 67-138 131-130 65 8 106 78 96 158z m-194-13c0 0 0 3-1 4-2 19 27 22 27 22 0 0 29 4 32-15 0-1 0-4 0-4 0 0-10 4-30 2-20-2-28-9-28-9z m92-91c0 0-62-9-67 32-1 3-1 9-1 9 0 0 20-10 63-4 43 5 61 19 61 19 0 0 0-6 1-8 5-42-57-48-57-48z m37 112c-20-2-29-9-29-9 0 0 0 3 0 4-2 20 27 22 27 22 0 0 29 5 31-15 0-1 1-4 1-4 0 0-10 5-30 2z m213 67c-82 10-114 38-114 38 0 0-10-108-10-113-10-80 31-150 96-158 64-8 121 50 131 130 1 5 17 112 17 112 0 0-37-19-120-9z m-86-50c0 1 0 4 0 4 0 0 8-7 29-9 20-3 29 2 29 2 0 0 0-3 0-4-3-20-32-15-32-15 0 0-29 3-26 22z m128-125c-1-3-1-9-1-9 0 0-18 15-61 20-42 5-63-4-63-4 0 0 1 6 1 8 5 42 67 33 67 33 0 0 62-7 57-48z m30 105c-2-19-31-15-31-15 0 0-29 3-27 23 0 1 1 4 1 4 0 0 8-7 28-10 20-2 30 3 30 3 0 0 0-3-1-5z"/>
<glyph unicode="&#120;" d="M102 58c0-4-3-7-7-7l-78 0c-4 0-7 3-7 7l0 22c0 4 3 7 7 7l78 0c4 0 7-3 7-7z m200 226c0-1-1-2-3-2l-81 0c-1 0-3 1-3 2l0 21c0 1 2 2 3 2l81 0c2 0 3-1 3-2z m0-36c0-1-1-2-3-2l-81 0c-1 0-3 1-3 2l0 21c0 1 2 2 3 2l81 0c2 0 3-1 3-2z m0-36c0-1-1-2-3-2l-81 0c-1 0-3 1-3 2l0 21c0 1 2 3 3 3l81 0c2 0 3-2 3-3z m0-41c0-1-1-2-3-2l-81 0c-1 0-3 1-3 2l0 21c0 1 2 3 3 3l81 0c2 0 3-2 3-3z m0-41c0-1-1-2-3-2l-81 0c-1 0-3 1-3 2l0 21c0 2 2 3 3 3l81 0c2 0 3-1 3-3z m0-41c0-1-1-2-3-2l-81 0c-1 0-3 1-3 2l0 21c0 2 2 3 3 3l81 0c2 0 3-1 3-3z m0-35c0-2-1-3-3-3l-81 0c-1 0-3 1-3 3l0 20c0 2 2 3 3 3l81 0c2 0 3-1 3-3z m-144 253l-81-224c-4-12-5-23-1-24l20-7c4-2 10 7 15 19l84 232c1 1 1 3 1 4z m42 123l10 0 0-379-10 0z m107 0l10 0 0-379-10 0z m97 0l11 0 0-312-11 0z m103-175c0-12 2-25-3-37-8-19-25-14-39-9-17 6-33 12-48 19-8 3-16 7-23 11-8 4-14 9-23 12-6 1-14 3-20 4-2 1-28 6-28 7l0 45 46-6c0 0 99-46 138-46z m-35-51c0 0-52-13-52-20 0-6 0 39 0 39 0 0 19-13 52-19z m-73 16c0 0 1-1 1-1 2-5 1-10 1-15-1-7 0-14 0-21 0-7-1-15-1-22 0-4-1-9-1-14 0-4 0-8 2-12 2-4 7-5 10-7 20-8 50-27 39-52-4-10-16-13-25-10-13 4-17 15-21 27-6 16-23 16-35 23-16 8-29 22-32 40-2 15 1 32 12 43 9 9 20 12 31 17 3 2 6 4 10 5 3 2 7 2 9-1z m-73-52c0 0 0-52 51-65 27-7 24-45 52-52 0 0-129 26-103 117z m145 201c-1 73-70 133-156 133-85 0-154-60-155-133z"/>
<glyph unicode="&#121;" d="M290 487l0-465-44 0 0 465z m-182-72c22 0 39 17 39 38 0 21-17 38-39 39-21-1-38-18-38-39 0-21 17-38 38-38z m-5-244l0-134c0-24-36-24-36 0l0 134-48 0 51 178-8 0-30-101c-7-22-38-13-31 10l34 111c3 12 19 35 47 35l53 0c27 0 43-23 47-35l33-110c7-24-23-34-30-11l-30 102-9 0 52-179-48 0 0-134c0-24-36-24-36 0l0 134-11 0z m279 233c-27 0-48-22-48-50l0-119c0-23 33-23 33 0l0 109 8 0 0-301c0-31 44-30 44 0l0 176 8 0 0-176c0-30 44-31 44 0l0 301 8 0 0-109c0-23 33-23 33 0l0 118c0 26-20 51-49 51z m41 11c21 0 38 17 38 38 0 21-17 38-38 39-21-1-39-18-39-39 0-21 18-38 39-38z"/>
<glyph unicode="&#122;" d="M-1 123l512 0-116 128c-2 3-7 4-11 3l-109-55c-4-1-9-1-12 2l-16 15c-3 3-12 4-15 2l-150-59 0 20c5 0 6 0 7 0 9 0 19 5 23 13 9 2 17 11 17 21 0 3 0 6-2 9 6 5 9 11 9 19 0 11-8 21-19 23-3 4-8 6-13 6 0 0-1 0-2 0-2 10-11 18-22 18-7 0-13-3-17-7-3 0-5 1-8 1-12 0-21-10-21-21 0-3 0-5 1-7-8-4-14-12-14-22 0-7 2-13 6-17 0-3-1-5-1-7 0-12 10-22 21-22 3 0 4 1 7 2 5-5 13-9 18-9l0-25z"/>
<glyph unicode="&#65;" d="M491 339c-13 19-40 27-61 24-28-5-13-11-75-27-32-8-66-15-83-19-35-8-116-27-133-33-17-6-27-9-36-10-32-6-66 2-81-15-16-18 8-50 40-62 32-13 77-22 104-13 2 1 5 2 8 3 2-3 5-7 5-7-3-4-7-13-5-18 3-3 9-10 13-12 4-2 16-2 24 7 7 8 9 15 4 24-2 3-6 7-10 9-4 1-10 0-12 0-1 0-1 2-1 3 34 12 85 30 121 41 25 8 63 20 95 31 4-3 13-9 14-9-2-3-2-5-1-8 2-2 6-9 9-10 3-2 10 1 16 7 5 6 6 15 4 18-2 2-8 6-11 7-4 2-7-2-11-5-1 1-2 4-3 6 4 2 8 3 11 5 16 6 33 15 37 18 14 10 30 26 18 45z"/>
<glyph unicode="&#66;" d="M190 263c-29 9-59 17-91 23-7 22-11 44-14 69 0 8-2 19-1 26 3 11 27 33 35 41 15 15 29 22 45 29 12 5 41 0 55-4 16-4 29-10 40-17 4-21 7-42 10-66 1-7 3-17 2-22-1-8-14-14-20-20-22-19-43-39-61-59z m0 0l0 0c-28 8-58 17-91 23-7 22-11 44-14 69 0 2 0 3 0 5-1 7-2 15-1 21 3 11 27 34 35 41l0 0c15 15 29 22 45 29 3 1 8 2 15 2 12 0 29-3 40-6 15-3 28-9 40-17 4-19 6-39 9-60l1-6c0-2 1-4 1-7 1-6 2-11 1-15-1-6-8-11-14-15-2-2-4-4-6-5-23-20-44-40-61-59z m-11 190c-7 0-12-1-15-2-16-7-30-14-45-29l0 0c-8-8-32-30-35-41-1-6 0-14 1-21 0-2 0-3 0-5 3-25 7-47 14-69 33-6 63-15 91-23 17 19 38 39 61 59 1 1 4 3 6 5 6 4 13 9 14 15 1 4 0 9-1 15-1 3-1 5-1 7l-1 6c-3 21-5 41-9 60-12 8-26 14-40 17-11 3-28 6-40 6z m245-78c23-5 40-14 57-24 6-15 11-32 16-49 5-17 11-37 9-56-1-13-11-33-17-44-7-14-16-26-26-35-20 10-40 20-62 27-1 32-7 58-15 84-2 8-8 20-7 26 0 7 17 27 22 34 9 15 16 26 23 37z m39-208l0 0c-20 11-41 20-62 27-2 33-8 60-15 84-1 3-2 6-3 9-2 6-4 13-4 17 0 5 9 17 16 26 2 3 4 6 6 8 4 7 8 13 12 19 3 6 7 12 11 18 23-5 41-14 57-24 6-14 11-31 16-49 1-1 1-3 1-4 5-16 10-35 8-52-1-13-12-35-17-44-7-14-17-26-26-35z m-39 208c-4-6-7-12-11-18-4-6-8-12-12-19-2-2-4-5-6-8-7-9-16-21-16-26 0-4 2-11 4-17 1-3 2-6 3-9 7-24 14-51 16-84 20-7 41-16 61-27 9 9 19 21 26 35 5 9 16 31 17 44 2 17-3 36-8 52 0 1 0 3-1 4-5 18-10 35-16 49-16 10-34 19-57 24z m-151-39c39-6 71-19 102-32 7-24 16-49 20-78 1-9 4-22 3-30-1-7-11-14-17-21-20-19-38-38-62-52-38 7-73 18-104 33-6 24-11 50-17 77-1 8-6 19-5 26 1 5 11 15 17 21 20 20 44 39 63 56z m46-213l0 0c-38 7-73 18-104 33-6 26-12 53-17 77 0 3-1 6-2 9-2 6-4 12-3 17 0 5 9 13 15 20 1 0 1 1 2 1 14 15 30 28 46 41 6 6 12 10 17 15 39-6 72-19 102-32 1-4 3-8 4-12 6-20 13-42 16-66 0-2 1-4 1-6 2-8 3-17 2-24-1-5-8-11-13-17-2-1-3-2-4-4l0 0c-20-19-38-38-62-52z m-46 213c-5-5-11-9-17-15-16-13-32-26-46-41-1 0-1-1-2-1-6-6-14-15-15-20-1-5 1-11 3-17 1-3 2-6 2-9 5-24 11-51 17-77 31-15 66-26 104-33 24 14 42 33 61 52l1 1c1 1 2 2 4 3 5 6 12 12 13 17 1 7-1 16-2 24 0 2-1 4-1 6-4 24-10 46-16 66-2 4-3 8-4 12-30 13-63 26-102 32z m-60-183c32-14 65-27 105-33 4-10 6-21 9-33 3-10 10-24 9-33-2-10-25-23-36-28-33-15-69-15-105-2-14 4-37 14-45 21-6 7-10 22-13 32-4 13-5 25-6 39 29 11 56 23 82 37z m35-139c-17 0-35 3-53 10-17 5-38 14-45 21-6 7-10 22-13 32-4 13-5 26-7 39 28 10 56 23 83 37 28-13 63-26 105-33 3-7 5-15 7-23 1-3 2-6 2-10 1-3 2-6 4-10 3-8 6-17 5-23-2-10-25-24-36-29-16-7-34-11-52-11z m-35 139c-27-14-54-27-82-37 1-13 2-26 6-39 3-10 7-25 13-32 7-7 28-16 45-21 18-6 36-10 53-10 18 0 36 4 52 12 11 4 34 18 35 28 2 6-1 15-4 23-2 4-3 7-4 10-1 4-1 7-2 10-2 8-4 16-7 23-42 7-77 20-105 33z m140 340c0-14 1-27-1-39-35-3-66-9-91-21-23 15-54 23-92 23 0 13 0 27-1 39 49 23 138 22 185-2z m-92-60l0 0c-24 15-55 23-92 23 0 4 0 9 0 13 0 9-1 18-2 26 23 11 56 17 90 17 38 0 72-7 96-19 0-2 0-3 0-4 1-12 1-24-1-35-39-3-68-10-91-21z m-4 79c-34 0-67-6-89-17 1-8 1-17 1-26 0-4 0-9 0-13 37 0 68-8 92-23 23 11 52 18 91 21 2 11 1 23 1 35 0 1 0 2 0 4-24 12-58 19-96 19z m100-21c61-26 105-68 131-128-2-2-4-6-6-9-17 11-36 19-57 25-21 27-40 55-70 74 1 12 3 24 2 38z m125-137l0 0c-17 11-36 19-57 25-2 3-5 6-7 9-18 24-37 48-63 65 1 2 1 5 1 8 1 9 2 19 1 30l0 0 0 0c61-26 105-68 131-128-1-1-3-3-4-5-1-1-1-3-2-4z m-125 137c1-11 0-21-1-30 0-3 0-6-1-8 26-17 45-41 63-65 2-3 5-6 7-9 21-6 40-14 57-25 1 1 1 3 2 4 1 2 3 4 4 5-26 60-70 102-131 128z m-276-110c2-35 5-69 15-95-16-25-31-50-36-85-13-4-32-3-45 0-16 21-15 65-10 96 5 32 16 62 29 83 12 5 32 5 47 1z m-42-183c-8 0-17 1-24 3-20 25-13 80-10 96 5 31 15 61 29 83 6 2 14 4 24 4 7 0 16-1 23-3 1-31 5-67 15-95-15-24-31-49-36-85-6-2-13-3-21-3z m19 186c-10 0-18-2-24-4-14-22-24-52-29-83-3-16-10-70 10-96 7-2 16-3 24-3 8 0 15 1 21 3 5 36 21 62 36 85-11 28-14 64-15 95-7 2-16 3-23 3z m452-144c1 0 1-1 2-1-5-62-28-109-59-146-4-4-7-12-14-12-3 6 3 13 6 19 9 18 17 40 21 65 19 20 33 46 44 75z m-72-159l0 0c-2 5 2 10 4 14 1 2 2 3 3 5 11 23 18 44 21 65 21 22 35 51 44 75 0 0 0 0 0 0 1 0 2-1 2-1-4-55-23-103-59-146-1-1-2-2-3-3-3-5-6-9-11-9l-1 0z m72 159c0 0 0 0 0 0-9-24-23-53-44-75-3-21-10-42-21-65-1-2-2-3-3-5-2-4-5-9-3-14 5 0 8 5 11 9 1 1 2 2 3 3 36 43 55 91 59 146-1 0-1 1-2 1z m-451-43c17-33 40-61 69-82 0-28 10-51 18-70-12-2-25 0-35 2-31 22-58 51-77 86-10 18-20 35-19 63 13-1 32-2 44 1z m76-153c-8 0-16 2-23 3l-1 0c-32 22-58 52-77 86l0 0c-10 18-20 35-19 63l0 0 0 0c5 0 13-1 22-1 9 0 17 1 22 2 17-33 40-61 69-82 0-26 9-48 16-65 1-2 1-3 2-5l0 0 0 0c-3 0-7-1-11-1z m-120 152c-1-28 9-45 19-63l0 0c19-34 45-64 77-86l1 0c7-1 15-3 23-3 4 0 8 1 11 1-1 2-1 3-2 5-7 17-16 39-16 65-29 21-52 49-69 82-5-1-13-2-22-2-9 0-17 1-22 1z m238-193c0 1 1 5-1 4 36 9 68 20 87 44 39 1 71 10 93 29 11-4-5-14-12-19-39-33-99-63-167-58z m16-1c-5 0-11 1-16 1 0 0 0 1 0 2 0 1 1 2 0 2 0 0 0 0-1 0l0 1c32 7 66 17 87 43 42 2 73 11 93 29 2-1 4-2 4-3 1-4-6-9-12-13-1-1-2-2-4-3-21-18-78-59-151-59z m-16 6c0-1 0-1 0-1 1 0 1-1 0-2 0-1 0-2 0-2 5 0 11-1 16-1 73 0 130 41 151 59 2 1 3 2 4 3 6 4 12 9 12 13 0 1-2 2-4 3-20-18-51-28-93-29-21-26-55-36-86-43z m4-6c-141 0-256 114-256 255 0 141 115 256 256 256 141 0 255-115 255-256 0-141-114-255-255-255z m0 504c-138 0-249-111-249-249 0-137 111-248 249-248 137 0 248 111 248 248 0 138-111 249-248 249z"/>
<glyph unicode="&#67;" d="M60 512c-37 0-60-23-60-60 0-30 60-76 90-106 61-60 160-114 256-210l91-91-15-15c0-15 15-30 30-30l30 30 30 30c0 15-15 30-30 30l-15-15-91 91c-86 86-150 195-210 256-30 30-76 90-106 90z m151-346c0-25-20-46-45-46-25 0-46 21-46 46 0 25 21 45 46 45 25 0 45-20 45-45z"/>
<glyph unicode="&#68;" d="M176 256c0 4 0 9 0 13 0 64-28 121-72 160-48-42-78-104-78-173z m-149-16c3-55 27-105 63-143 45 34 76 85 84 143z m165 29c0-4 0-9 0-13l56 0 0 230c-49-2-94-19-131-47 46-42 75-103 75-170z m-2-29c-8-63-41-117-89-154 39-36 90-58 147-60l0 214z m130 16c0 4 0 9 0 13 0 67 29 128 75 170-37 28-82 45-131 47l0-230 56 0z m2-16l-58 0 0-214c57 2 108 24 147 60-48 37-81 91-89 154z m164 16c0 69-30 131-78 173-44-39-72-96-72-160 0-4 0-9 0-13z m-148-16c8-58 39-109 84-143 36 38 60 88 63 143z"/>
<glyph unicode="&#69;" d="M53 102c2 5 7 7 12 5 10-4 22-4 32 0 0 0 0 0 0 0 15 6 31 6 46 0 0 0 0 0 0 0 10-4 22-4 32 0 0 0 0 0 0 0 15 6 32 6 46 0 5-2 8-7 6-12-2-4-5-6-9-6-1 0-2 0-4 1-10 4-21 4-32 0 0 0 0 0 0 0-7-3-15-5-23-5-8 0-15 2-23 5 0 0 0 0 0 0-10 4-22 4-32 0 0 0 0 0 0 0-7-3-15-5-23-5-8 0-16 2-23 5-5 2-7 7-5 12z m168-28c-14 6-31 6-46 0 0 0 0 0 0 0-10-4-22-4-32 0 0 0 0 0 0 0-15 6-31 6-46 0 0 0 0 0 0 0-10-4-22-4-32 0-5 2-10-1-12-5-2-5 0-11 5-13 7-2 15-4 23-4 8 0 16 2 23 4 0 0 0 0 0 0 10 5 22 5 32 0 0 0 0 0 0 0 8-2 15-4 23-4 8 0 16 2 23 4 0 0 0 0 0 0 11 5 22 5 32 0 2 0 3 0 4 0 4 0 7 2 9 6 2 4-1 10-6 12z m0 100c-14 6-31 6-46 0 0 0 0 0 0 0-10-4-22-4-32 0 0 0 0 0 0 0-15 6-31 6-46 0 0 0 0 0 0 0-10-4-22-4-32 0-5 2-10 0-12-5-2-5 0-10 5-12 7-3 15-5 23-5 8 0 16 2 23 5 0 0 0 0 0 0 10 4 22 4 32 0 0 0 0 0 0 0 8-3 15-5 23-5 8 0 16 2 23 5 0 0 0 0 0 0 11 4 22 4 32 0 2-1 3-1 4-1 4 0 7 2 9 6 2 5-1 10-6 12z m0-33c-14 6-31 6-46 0-10-4-22-4-32 0 0 0 0 0 0 0-15 6-31 6-46 0-10-4-22-4-32 0-5 2-10-1-12-6-2-4 0-10 5-12 7-3 15-4 23-4 8 0 16 1 23 4 10 4 22 4 32 0 0 0 0 0 0 0 8-3 15-4 23-4 8 0 16 1 23 4 11 4 22 4 32 0 2 0 3 0 4 0 4 0 7 2 9 5 2 5-1 11-6 13z m120 155c0 0 0 0 0 0l-1 0c1 0 1 0 1 0z m-113 157c-3-1-6-2-9-3 3 1 6 2 9 3z m-42-15c4 1 7 2 10 4-3-2-6-3-10-4z m156-113c-26 1-51-3-76-11l95-262-20-8-95 263c-24-10-45-24-64-40 0 0 0 0 0 0 0 0 0 0 0 0-23 2-48 1-72-5-25-6-47-15-67-27 4 87 59 167 143 203 0 0 0 0 0 0 0 0 0 0 0 0 4 2 9 3 13 5l-4 8 18 6 3-8c4 1 8 3 13 4 0 0 0 0 0 0 0 0 0 0 0 0 87 27 180 1 240-63-23-4-46-11-69-22-22-12-42-26-58-43 0 0 0 0 0 0z m-86-14c0 0 0 0 0 0 0 0 0 0 0 0z m70 24c-29 65-66 108-95 108-7-2-13-5-19-7l-1-1c-7-2-13-4-20-7-19-16-26-65-3-143 19 16 41 28 65 36 23 9 48 13 73 14z"/>
<glyph unicode="&#70;" d="M398 288c-10 0-20-2-29-6l-18 36 7 14c5 1 9 4 12 10 2 2 1 6-2 7-3 2-7 1-8-2-2-4-4-4-4-4l-24 0c-3 0-6-3-6-6 0-3 3-5 6-5l14 0-4-8-164 0 14 29 13 0c13 0 24 11 24 24 0 3-3 5-6 5-3 0-5-2-5-5 0-7-6-12-13-12l-17 0c-2 0-4-1-5-4l-38-78c-9 4-18 6-28 6-42 0-76-34-76-76 0-42 35-76 77-76 42 0 76 33 76 75 0 28-16 53-38 66l14 31 118-105c0 0 1 0 1 0 0 0 1-1 1-1 0 0 0 0 0 0 0 0 0 0 1 0 0 0 1 0 1 0l32 0c5-38 36-66 75-66 42 0 76 33 76 75 0 42-35 76-77 76z m-216-76c0-35-29-64-64-64-36 0-65 29-65 64 0 36 29 65 65 65 8 0 16-2 23-4l-28-58c-2-3 0-6 2-8 1 0 2 0 3 0 2 0 4 1 5 3l28 58c18-11 31-32 31-56z m177 65c-22-13-36-36-36-63l-22 0 44 91z m5-10l25-53-55 0c0 22 12 41 30 53z m-28 45l-46-95-106 95z m62-164c-32 0-59 24-63 55l63 0c2 0 4 1 5 2 1 2 1 4 0 6l-29 61c7 3 16 6 24 6 36 0 65-30 65-65 0-36-29-65-65-65z"/>
<glyph unicode="&#71;" d="M163 292l-40-24 5-1 38 23z m0-31l4-1 1 0z m0 0l4-1z m91 46c7 0 13 5 14 12 1 7-5 13-12 14-7 1-13-4-14-12-1-7 5-13 12-14z m-49-34l14-7 5 1-15 9c-2-1-3-2-4-3z m30-11l-1-3 15-8-15 2-38 4-29 3-4 1-49 5 48 29 7-4 3 3-11 5-60-36 167-18z m-30 7c0-3 3-5 6-4l6 1-12 6c0-1 0-2 0-3z m37-16l-8 4 0-3z m205-3l-9 0c-2 1-4-1-4-3l17-2c0 2-1 4-4 5z m-425 10l395-42c0 1 0 2 0 3l0 4-394 42c-2 0-4-1-4-3 0-2 2-3 3-4z m412-44c1-1 2-2 2-3l0-1 6-1 22 28c-7 2-13 4-15 4l-15 2c-5 0-10-3-10-9l-1-13c-1-5 3-10 8-10l0 0 0 0c0 2 2 3 3 3z m2-3c0 1-1 2-2 3-1 0-3-1-3-3l0 0 5-1z m20-3l20 25c-1 1-4 2-6 2l-21-26z m15-2c5 0 10 3 10 9l2 13c0 1-1 2-2 2l-18-23z m-277 71l4-2 7-4c1 1 2 2 4 3l-37 18-3-3z m40-20l1 3-11 5-5-1z m0-6l-38 4z m-66 7l3 0 27 17 0 0-4 2-31-18z m26 19l4-2z m35-10l1 0 1 0c1 0 2 0 3 1 0 0 0 0 1 1l18 19c2 1 2 5 0 7-2 2-6 2-8 0l-17-18-14-3 13-6c1-1 1-1 2-1z m27 30c3-3 3-9 0-13l-20-21 26-12 4 40c1 6-3 11-10 12l-6 0c-6 1-11-3-12-9l0-1 4 4c4 4 10 4 14 0z m-34-116c5-1 9-3 13-4 8-1 15-1 22-2 5 1 9 1 13 1 5 0 10-2 14-3 2-1 4-1 6-2 1 0 2 0 4 0 3 0 7 0 10 1 6 1 11 3 16 4 4 0 9 1 13 0 5-1 9-3 14-5 10-4 22-2 32 2 6 2 11 3 18 3l6 8-343 37c25-16 66-32 133-39 4-1 9-1 13-2 6 1 11 2 16 1z m-180 53l369-40 11 14c-2 1-3 3-4 5l-394 42c4-5 9-13 18-21z m396-69c1 1 2 1 3 1 0 0 0 0-1 0 0 0-1 0-2-1z m70 0c-5 0-11 1-17 3-5 1-10 3-15 4-10 2-21-2-31-5-4-1-8-2-13-1-2 0-3 0-4 0l-1 0c-5 1-10 2-15 4-5 2-10 3-15 4-6 0-11-1-17-3-10-4-22-6-33-2-4 1-9 4-14 4-4 1-8 1-12 0-6-1-11-3-17-4-3 0-7-1-10 0-2 0-3 0-4 0-2 0-3 0-5 1-5 2-9 3-14 3-5 1-9 0-13 0-1-1-2-1-3-1l0 0c-6 0-12 1-17 2-1 1-2 1-3 1-4 1-8 3-12 3-6 2-11 1-16 0-5-1-11-3-15-4-6-1-12-3-18-1-5 0-11 2-16 4-5 2-10 3-15 3-6 1-11-1-16-3-11-3-23-6-33-2-5 2-9 4-14 5-4 1-9 1-13 0-5-1-11-3-16-4-7-1-13-1-20 1-5 1-9 3-14 3-5 0-10 0-16-1-2-1-1-4 1-3 5 0 11 1 17 1 5 0 10-3 16-4 10-2 21 1 32 4 5 1 10 1 15-1 5-1 10-3 14-5 5-1 10-1 15-1 5 1 10 2 15 4 6 2 11 4 17 3 6 0 12-2 17-4 5-2 10-3 16-4 5 0 9 0 14 2 5 0 11 2 16 4 6 1 12 1 18 0 6-1 11-3 16-4 5-2 10-2 15-2 0 0 0 0 1 0 5 1 10 2 16 1 6 0 11-3 16-4 7-1 14 0 21 1 4 1 8 2 11 3 5 1 11 1 16-1 5-1 9-3 14-5 5-1 10-1 14 0 5 0 11 2 15 3 5 2 10 3 15 4 1 0 2 0 3 0 6-1 11-3 17-5 4-1 8-2 12-3 2 0 2-1 4-1 0 0 1 0 1 0 3 0 5 0 7 1 1 0 2 1 3 1 0 0 0 0 1-1l1 1c6 1 11 2 16 4 7 1 12 2 19 0 5-1 10-3 15-4 5-1 10-2 15-2 2 0 2 3 0 3z m3-9c-6 0-11 1-17 2-5 1-10 3-15 4-11 3-21-1-31-4-5-1-9-2-13-2-2 0-3 0-5 1 0 0 0 0 0 0-6 0-11 2-16 4-5 2-9 3-14 3l-1 0c-6 1-11-1-16-3-11-3-23-6-33-2-5 2-9 4-14 5-4 1-9 1-13 0-5-1-10-3-16-4-3-1-7-1-11-1-1 0-2 0-3 1-2 0-4 1-6 1-4 1-9 3-14 3-4 0-8 0-12-1-1 0-2 0-3-1l-1 1c-5 0-11 1-16 2-1 0-2 0-3 1-4 1-9 2-13 3-5 2-10 1-16 0-5-1-10-3-14-4-7-2-12-3-18-2-6 1-11 3-16 5-5 1-10 3-15 3-6 1-11-1-17-3-10-4-22-6-33-2-4 2-9 4-13 5-5 1-9 0-13 0-6-1-11-3-16-4-7-1-14-1-20 1-5 1-9 3-14 3-6 0-11-1-16-2-2 0-1-3 1-3 5 2 10 2 16 2 6 0 11-3 16-4 11-3 22 1 32 4 6 1 11 0 16-1 5-1 9-4 14-5 5-1 10-1 14-1 6 0 11 2 16 3 5 2 11 4 17 4 6 0 11-2 17-4 5-2 10-3 16-4 4-1 9 0 14 1 5 1 10 3 16 4 6 2 12 2 18 1 5-2 10-4 15-5 5-1 10-1 15-1 1 0 1-1 1-1 6 2 11 2 17 2 5 0 10-3 16-4 7-2 13-1 20 1 4 1 8 2 12 3 5 1 11 1 16-1 4-1 9-3 14-5 4-1 9-1 14-1 5 1 10 2 15 4 5 1 10 3 15 3 1 0 1 0 2 0 6 0 12-2 17-4 5-2 9-3 13-3 1 0 2-1 3-1 1 0 1 0 2 0 3 0 5 0 7 1 1 0 1 0 3 0 0 0 0 0 0 0 0 0 1 0 2 0 5 1 11 3 16 4 7 2 12 3 18 1 6-1 10-3 16-4 5-1 10-2 15-2 2 0 2 3 0 3z"/>
<glyph unicode="&#72;" d="M202 426c-21 0-38-17-38-38 0-21 17-37 38-37 21 0 38 16 38 37 0 21-17 38-38 38z m193-74c-1 8-8 12-8 13l-224 147-20-30c-4-6-3-14 3-18 6-4 14-2 18 4l12 17 182-120-149-26c-11-2-18-13-16-23l33-125-105-157c-6-11-3-25 8-31 11-6 25-2 31 8 0 0 109 165 110 166 0 0 6-23 6-23l-17-124c-2-12 6-23 19-25 12-2 24 6 26 18l17 127c0 3 0 10-1 13l-37 149 97 17c10 2 17 12 15 23z"/>
<glyph unicode="&#73;" d="M431 249l-271 0c0-48 25-91 63-115l-42-128 19-6 17 50 160 0 16-50 19 6-42 130c37 24 61 66 61 113z m-59-185l-151 0 20 61c17-8 35-12 54-12 20 0 40 5 57 13z m-68 288c18 18 18 46 6 70 30-18 30-57 6-81-17-18-17-46-6-70-29 18-29 57-6 81z m-46-17c13 13 13 36 4 54 23-14 23-45 5-63-14-14-14-36-5-55-23 15-23 45-4 64z m87 0c13 13 13 36 4 54 24-14 24-45 5-63-14-14-14-36-5-55-23 15-23 45-4 64z m-47 161l-21 9c-51 17-109 2-145-38l-9 6 2 3c2 3 1 8-2 10l-4 2c-3 2-7 1-9-3l-27-43c-3-4-2-8 1-10l4-3c3-2 7 0 9 3l3 4 9-6c-26-61-5-132 53-168l143 230c-2 1-5 2-7 4z m-193-52l13 20 8-5c-3-3-5-7-7-11-2-3-4-6-6-9z"/>
<glyph unicode="&#74;" d="M482 113l-13 27-1 4-4 0c0 0-16 1-63 3l-1 0c-23 1-34 2-41 3-6 1-7 3-13 8l0 0c-3 4-35 41-74 86 56 69 120 147 121 148l1 1 0 1c2 3 2 6 0 9-2 3-6 5-10 5-4 0-6-1-8-3-26-32-76-90-120-142-44 52-94 110-120 142-2 2-4 3-8 3-4 0-8-2-10-5-2-3-2-6 0-9l0-1 1-1c1-1 65-79 121-148-39-45-71-82-74-86l0 0c-6-5-7-7-13-8-7-1-18-2-41-3l-1 0c-47-2-63-3-63-3l-4 0-1-4-13-27-4-9 10 0 107 5c19 1 27 10 41 27 2 3 4 6 6 8 7 8 34 41 66 80 32-39 59-72 66-80 2-2 4-5 6-8 14-17 22-26 41-27l107-5 10 0z m-358 283c-2 3 2 6 4 6 1 0 2-1 3-1 26-32 76-91 121-143-3-3-5-6-8-9-56 69-120 147-120 147z m-88-285l13 27c0 0 4 0 16 1l-11-28z m25 1l10 27c2 0 3 0 5 0l-10-27z m13 0l10 27c2 1 3 1 5 1l-10-28z m13 1l10 27c2 0 3 0 5 0l-10-27z m13 0l10 28c0 0 1 0 2 0 1 0 2 0 3 0l-10-27z m13 1l10 27c1 0 3 0 5 0l-10-27z m13 1l10 27c1 0 3 0 5 0l-10-27z m127 117c-33-41-61-75-68-83-18-23-24-33-43-34l-4 0 10 28c13 1 15 4 23 11 0 0 32 38 73 85 0 1 1 1 1 2 1 1 2 2 3 2 0 1 0 1 0 1 3 3 5 6 8 9 1 2 3 4 4 5 45 52 95 111 121 143 1 0 2 1 3 1 2 0 6-3 4-6 0 0-64-78-120-147-1-1-3-3-4-5-3-3-5-6-8-9-1-1-2-2-3-3z m117-117c-19 1-25 11-43 34-7 8-34 41-67 81 3 3 5 6 8 9 41-47 73-85 73-85 8-7 10-10 23-11l10-28z m11 0l-10 27c2 0 4 0 5 0l10-27z m13-1l-10 27c2 0 4 0 5 0l10-27z m13 0l-10 27c1 0 2 0 3 0 1 0 2 0 2 0l10-28z m13-1l-10 27c2 0 3 0 5 0l10-27z m13-1l-10 28c2 0 3 0 5-1l10-27z m13 0l-10 27c2 0 3 0 5 0l10-27z m12-1l-11 28c12-1 16-1 16-1l13-27z"/>
<glyph unicode="&#75;" d="M454 418c25 0 46 21 46 47 0 26-21 47-46 47-26 0-47-21-47-47 0-26 21-47 47-47m-132-400l120 0c0 0 9-1 9 8l0 10 17 0c0 0 5-33-20-36l-126 0z m-299 94l84-86c0 0 6-7 13-1l7 7 12-12c0 0-20-27-39-12l-90 91z m327 29l0-85c0-16 13-29 29-29 14 0 28 17 28 29l0 119c0 8-3 15-9 21l-68 69 91 92c17 21 8 47 8 47-9 29-42 30-42 30l-234 0c-13 0-23-10-23-23 0-13 10-23 23-23l162 0-69-69c-9-10-14-21-14-36 0-14 5-27 15-36z m-118 93c-2 2-4 4-6 7l-135-138c-10-8-14-22-8-35 7-14 24-19 38-12 2 1 4 2 6 3l139 141z"/>
<glyph unicode="&#76;" d="M267 424c22 0 40 18 40 40 0 22-18 40-40 40-22 0-40-18-40-40 0-22 18-40 40-40z m-67-268c-4 6-12 18-20 33l0 6-6-10-103-3c-10 0-19-9-18-20 0-10 9-19 20-18 0 0 90 3 105 3 16-1 22 9 22 9z m231 237c0-5-5-10-10-10-6 0-10 5-10 10 0 6 4 10 10 10 5 0 10-4 10-10z m-195-192c7 11 13 23 19 36 7 16 14 33 19 48l-16-11c1-7-1-13-4-19-6-10-16-15-26-15-5 0-10 1-15 4l-29 18 0 0c-5 2-11 9-11 9l-1-10c-3-26 16-59 16-61 13-26 29-48 29-48l-32-120c-2-10 4-21 14-23 10-3 21 3 23 13l32 120c0 0 5 18 1 28z m215 215c-7 10-19 16-30 16-7 0-13-2-18-6-5-4-8-10-12-17-2-3-5-10-6-11-6-4-10-10-11-17 0-5 0-9 2-14l-42-28c0 1 0 1 0 1 0 0 0 0-1 0 0 0 0 0 0 0 0 1-1 1-2 1 0 0 0 0 0 0 0 0 0 0 0 0 0 1-1 1-1 1 0 0 0 0 0 0 0 0-1 0-1 0 0 0 0 0 0 0-1 0-1 0-1 1 0 0 0 0-1 0 0 0 0 0-1 0-10 1-19-5-21-15l-14 13 2 8c13 32 5 58 0 70-8-4-17-7-26-7-13 0-25 5-34 14l-31-10c0 0-52-73-64-90-12-17 16-33 16-33l65-39c8-5 19-2 24 7 6 8 3 19-6 24l-58 34 9 8c4-2 7-3 7-3l48-28c4-3 8-6 10-10l51 33-3-16-18-12 18-12c0 0 25-6 35 4 4 18 7 42 7 43 0 0 0 0 0 0 0 1-1 2-1 3l42 29c4-4 10-6 16-6 6 0 11 1 15 5 2 1 9 2 13 3 7 2 14 3 19 7 8 5 12 14 12 23 1 9-2 18-8 26z m-11-40c-6-4-25-4-32-10-2-1-5-2-8-2-4 0-8 2-11 5-5 6-3 15 3 19 7 6 12 24 18 28 3 3 7 4 11 4 7 0 15-4 20-12 9-11 8-25-1-32z"/>
<glyph unicode="&#77;" d="M512 71c-11 0-22 2-31 7-10 4-21 7-33 7-12 0-23-3-32-7-10-5-21-7-32-7-11 0-22 2-31 7-10 4-21 7-33 7-12 0-23-3-32-7-10-5-21-7-32-7-11 0-22 2-32 7-9 4-20 7-32 7-11 0-23-3-32-7-10-5-21-7-32-7-11 0-22 2-31 7-10 4-21 7-33 7-12 0-23-3-32-7-10-5-21-7-32-7l0 48c11 0 22 2 32 6 9 5 20 8 32 8 12 0 23-3 33-8 9-4 20-6 31-6 11 0 22 2 32 6 9 5 20 8 32 8 12 0 23-3 32-8 10-4 21-6 32-6 11 0 22 2 32 6 9 5 20 8 32 8 12 0 23-3 33-8 9-4 20-6 31-6 11 0 22 2 32 6 9 5 20 8 32 8 12 0 23-3 33-8 9-4 20-6 31-6z m-74 135c33 0 61 28 61 62 0 34-28 61-61 61-34 0-61-27-61-61 0-34 25-62 61-62z m-355-35c5-1 9-3 14-4 9-5 20-7 31-7 11 0 22 2 32 7 9 4 21 7 32 7 12 0 23-3 32-7 10-5 21-7 32-7 11 0 22 2 32 7 9 4 20 7 32 7 12 0 23-3 33-7 9-5 20-7 31-7 8 0 16 1 24 3l-102 186 118 21c17 4 30 18 30 35 0 20-16 35-35 35-1 0-2 0-4 0l-182-33c-13-3-30-22-20-46 0-1 1-2 1-3l48-87z"/>
<glyph unicode="&#78;" d="M136 159c0 0 54 45 52 114 0 0 0 84 20 109 0 0-22-100 20-146 42-45 146-27 146-27 0 0-39-22-121-16 0 0-65-19-94-54z m2-2c0 0 55 47 53 116 0 1 0 84 19 107l-5 2c-1-4-21-101 21-148 42-46 144-28 148-27l-2 5c0-1-39-23-118-16l-1 0 0 0c-3-1-66-21-96-55l4 0-23 20z m23-19c28 33 92 52 93 53l-1 0c82-7 122 16 122 16l-2 5c-1 0-103-18-143 26-41 44-20 142-20 143l-4 2c-20-25-20-107-20-110 1-67-51-112-51-112l-3-2 3-2 22-19 2-2z m-110-116c-11-12-27-14-35-6-9 8-7 24 4 35l82 84c11 12 26 14 35 6 8-8 6-24-5-35z m-2 1c-10-10-24-12-32-5-2 3-4 6-4 11 0 7 3 14 9 20l82 84c9 11 24 13 31 6 7-7 5-21-5-31z m85 81c12 12 14 30 4 39-9 9-26 6-38-6l-82-84c-6-7-10-16-10-24 0-6 2-11 6-15 9-9 27-6 38 6z m118 345c-24-22-42-49-53-78-20-53-12-106 20-141 22-23 52-36 86-37 47-2 96 18 135 54 39 36 62 84 64 131 1 34-10 65-31 88-52 56-151 48-221-17z m206 3c18-19 27-44 26-74-2-41-23-83-58-116-35-33-79-50-120-49-29 1-54 12-72 31-27 29-33 74-16 120 10 26 27 50 48 70 62 57 148 65 192 18z m-68 23l-173-165-5 5 173 165z m53-17l-214-201-5 5 214 201z m32-40l-205-197-5 5 205 197z m3-58l-142-145-6 6 143 145z m-8-38l-144 144 6 5 143-144z m-32-47l-158 163 5 5 159-162z m-44-30l-150 151 5 6 151-152z m-54-20l-123 126 6 6 122-127z m-122-149c0-32 26-58 58-58 4 0 8 1 12 2-3 5-12 17-30 25-1 0-21 10-26 28-2 10 0 21 8 31l0 0c1 0 10 14 25 15 10 1 20-3 29-13l1-1 0 0c6-9 23-30 39-31 0 1 0 1 0 2 0 32-26 58-58 58-32 0-58-26-58-58z m70 24c-8 8-15 11-22 10-11-1-18-11-18-11l0 0-1 0c-6-9-8-16-6-23 3-15 21-23 21-23 22-9 32-26 35-31 18 7 32 24 36 43-22 2-43 31-45 35z"/>
<glyph unicode="&#79;" d="M335 454c-4-25-28-42-53-37-25 5-42 29-37 54 5 24 29 41 54 36 24-4 41-28 36-53z m-97-289c-25 4-42 28-37 53l27 146c5 25 29 42 54 37 25-5 41-29 37-54l-27-146c-5-25-29-41-54-36z m-169 177c-8 2-15 8-18 16-3 12 4 25 16 29l102 30 111-11c12-1 21-13 20-25-1-13-12-22-25-21l-101 10-94-27c-4-1-7-2-11-1z m294-32l-96 52c-11 7-15 21-9 32 6 11 20 15 32 9l88-49 81-10c13-2 22-13 20-26-2-13-13-22-26-20z m-123-115l124-14 112-31m0-31c-3 0-5 0-8 1l-110 30-121 14c-17 2-29 17-27 34 2 17 17 29 34 27l125-14 3-1 112-31c17-4 26-21 22-37-4-14-16-23-30-23z m-440-46c-14 0-26 10-30 24-4 16 6 33 22 37l126 31 66 67c12 12 31 12 43 0 12-12 12-32 0-44l-77-78-143-36c-2 0-5-1-7-1z m264 55l25 0 0-128-25 0z m25-3c0-7-6-12-13-12-7 0-12 5-12 12 0 8 5 13 12 13 7 0 13-5 13-13z"/>
<glyph unicode="&#80;" d="M360 451c-20 0-36-16-36-35 0-20 16-36 36-36 19 0 35 16 35 36 0 19-16 35-35 35z m99-232c7 16 6 50-2 84 1-1 4-9 4-9 12-10 26-6 32 12-13 29-26 58-39 87-11 2-22-2-32-10 5-12 9-24 14-36l-19 23-32 9-21-7c-1-1-3-4-4-5-16-23-24-47-29-72-20-13-40-25-60-38-4-3-9-6-13-9l7-21 6 2 5 2 63-113-22-92 39-9 4 11 10 28 24-38 14 3-32 61 14 58 26 29 70-151 26 17z m-99-39c-6-12-11-23-16-35l-52 91 61 23 7 11 10 16c7-15 15-30 22-44-11-21-22-41-32-62z m-251 317c-21 0-38-18-38-38 0-21 17-38 38-38 20 0 37 17 37 38 0 20-17 38-37 38z m112-251c6 9 10 21 10 34-2 15-7 32-12 48-6 11-1 0 3-1 17-5 27 0 32 13-16 36-30 71-46 106-14-1-24-5-31-13l23-62c-14 31-31 52-59 51-11 0-21-5-32-16-1 0-1-1-2-1-9-27-18-54-27-80l-80-54 11-22 12 4 70-120-19-101 35-10 7-1 12 49 28-44 20 2-42 76 8 42 34 41 81-169 14 12 13 11z m-112-58l-11-22-57 95 67 34c0 0 1 1 1 1 4 6 8 12 11 18 13-16 21-32 26-47z"/>
<glyph unicode="&#81;" d="M51 195c0-9 7-16 16-16l20 0c9 0 15 7 15 16l0 128c0 8-6 15-15 15l-20 0c-9 0-16-7-16-15z m359 0c0-9 6-16 15-16l20 0c9 0 16 7 16 16l0 128c0 8-7 15-16 15l-20 0c-9 0-15-7-15-15z m-302-41c0-9 6-16 15-16l20 0c9 0 16 7 16 16l0 204c0 9-7 16-16 16l-20 0c-9 0-15-7-15-16z m245 0c0-9 7-16 16-16l20 0c9 0 15 7 15 16l0 204c0 9-6 16-15 16l-20 0c-9 0-16-7-16-16z m-189 128l184 0 0-52-184 0z m-113 0l51 0 0-52-51 0z m57 0l51 0 0-52-51 0z m302 0l51 0 0-52-51 0z m87 0l-31 0 0-52 31 0c8 0 15 7 15 16l0 20c0 9-7 16-15 16z m-144 0l51 0 0-52-51 0z m-307 0l-31 0c-8 0-15-7-15-16l0-20c0-9 7-16 15-16l31 0z"/>
<glyph unicode="&#82;" d="M254 404c0 6 2 6 5 2l222-337c6-9 5-8 15-8l10 0c6 0 8 3 5 8l-250 381c-3 4-7 4-10 0l-250-381c-3-5-1-8 5-8l239 0c5 0 9 4 9 9z m155-242l-144 0c-3 0-6-3-6-7 0-4 3-7 6-7l19 0 48-41-51-44c-1-1-1-2 0-4 1-1 3-1 5 0l51 44 51-44c2-1 4-1 5 0 1 2 1 3 0 4l-52 44 49 41 19 0c3 0 6 3 6 7 0 4-3 7-6 7z m-72-51l-45 37 89 0z m40 66c0-7-6-12-12-12l-56 0c-6 0-12 5-12 12 0 6 6 12 12 12l56 0c6 0 12-6 12-12z"/>
<glyph unicode="&#98;" d="M405 453l-32 56-40-76-30-9 0-154 135-107 0 299z m-32 33l20-36-45-13z m40-57l0-64-35-56-23 83-27-54 0 67z m-85-147l0 30 24 49 22-79 39 62 0-129z m-102 59c19 4 30 22 27 41-4 18-22 30-40 26-19-3-30-21-27-40 4-18 22-30 40-27m-149-66l74 73c5 6 10 8 17 8 7 0 19-5 23-16l16-58 9 30c3 9 13 14 22 11 8-3 13-13 10-22l-24-73c-3-7-9-11-16-11 0 0 0 0 0 0-7 0-14 5-16 11l-15 46-49-49 0-173c0-8-3-14-8-19-6-6-12-8-20-8-8 0-14 2-19 8-6 5-9 11-9 19l0 212c0 4 2 8 5 11z m312-256l-27 0 0 165c0 4-3 8-7 8-4 1-8-1-9-5-6-15-19-41-31-46-2-1-4-1-7 0-15 6-28 52-32 83-1 4-4 7-9 7-4 0-8-4-8-9l0-148-26 0c-4 0-8-4-8-8 0-5 4-9 8-9l69 0c5 0 9 4 9 9 0 4-4 8-9 8l-26 0 0 84c6-15 15-28 26-33 6-2 13-2 20 1 9 4 17 13 23 22l0-129-27 0c-5 0-9-4-9-8 0-5 4-9 9-9l71 0c5 0 9 4 9 9 0 4-4 8-9 8z"/>
<glyph unicode="&#99;" d="M248 391l16 0 0-45-16 0z m-13-1l9-45-16-3-8 45z m-28-6l17-43-14-6-17 43z m-25-11l25-39-13-9-25 39z m-23-16l32-34-12-10-31 33z m-19-19l37-28-10-12-36 28z m-15-22l41-21-8-14-40 21z m-11-24l43-14-5-15-43 14z m-7-27l45-5-2-16-45 6z m-2-23l46 0 0-16-46 0z m-79-23l45 0 0-15-45 0z m52 0l46 0 0-15-46 0z m53 0l20 0 0-15-20 0z m-105-22l19 0 0-16-19 0z m26 0l46 0 0-16-46 0z m53 0l46 0 0-16-46 0z m-79-22l45 0 0-16-45 0z m52 0l46 0 0-16-46 0z m53 0l20 0 0-16-20 0z m117 216l16 0 0-45-16 0z m-13-1l9-45-16-3-8 45z m-28-6l17-43-14-6-17 43z m-25-11l25-39-13-9-25 39z m-23-16l32-34-12-10-31 33z m-19-19l37-28-10-12-36 28z m-15-22l41-21-8-14-40 21z m-11-24l43-14-5-15-43 14z m-7-27l45-5-2-16-45 6z m-81-135l45 0 0-16-45 0z m52 0l46 0 0-16-46 0z m53 0l20 0 0-16-20 0z m-105-22l19 0 0-16-19 0z m26 0l46 0 0-16-46 0z m53 0l46 0 0-16-46 0z m-79-22l45 0 0-16-45 0z m52 0l46 0 0-16-46 0z m53 0l20 0 0-16-20 0z m-105 89l45 0 0-16-45 0z m52 0l46 0 0-16-46 0z m53 0l20 0 0-16-20 0z m-105-23l19 0 0-15-19 0z m26 0l46 0 0-15-46 0z m53 0l46 0 0-15-46 0z m-79 67l45 0 0-15-45 0z m52 0l46 0 0-15-46 0z m53 0l20 0 0-15-20 0z m-105-22l19 0 0-16-19 0z m26 0l46 0 0-16-46 0z m53 0l46 0 0-16-46 0z m-79 67l45 0 0-16-45 0z m0-22l19 0 0-16-19 0z m26 0l46 0 0-16-46 0z m53 0l46 0 0-16-46 0z m-79 66l45 0 0-15-45 0z m0-22l19 0 0-16-19 0z m26 0l46 0 0-16-46 0z m-26 67l45 0 0-16-45 0z m52 0l46 0 0-16-46 0z m-52-22l19 0 0-16-19 0z m26 0l46 0 0-16-46 0z m-26 67l45 0 0-16-45 0z m52 0l46 0 0-16-46 0z m-52-23l19 0 0-15-19 0z m26 0l46 0 0-15-46 0z m53 0l46 0 0-15-46 0z m-79 67l45 0 0-16-45 0z m52 0l46 0 0-16-46 0z m-52-22l19 0 0-16-19 0z m26 0l46 0 0-16-46 0z m53 0l46 0 0-16-46 0z m26-22l46 0 0-16-46 0z m26 22l46 0 0-16-46 0z m53 0l43 0 0-16-43 0z m-79 22l46 0 0-16-46 0z m52 0l46 0 0-16-46 0z m46-46l0 2-46 0 0-16 4 0c13 6 27 11 42 14z m-54-21l-18 0 0-12c6 5 12 9 18 12z m-29-22l-15 0 0-16 1 0c4 6 9 11 14 16z m-19-22l-22 0 0-16 12 0c3 5 6 11 10 16z m-14-23l-35 0 0-15 29 0c2 5 4 10 6 15z m-13-44l-22 0 0-16 20 0c0 5 1 11 2 16z m148 127l16 0 0-45-16 0z m44-4l-8-45-16 3 9 45z m27-9l-17-43-14 6 17 43z m24-14l-25-39-13 9 25 39z m21-18l-31-33-12 10 32 34z m17-20l-36-28-10 12 37 28z m13-24l-40-21-8 14 41 21z m9-25l-43-14-5 15 43 14z m4-27l-45-6-2 16 45 5z m-46-8l46 0 0-16-46 0z m80-23l45 0 0-15-45 0z m-53 0l46 0 0-15-46 0z m-27 0l20 0 0-15-20 0z m106-22l19 0 0-16-19 0z m-53 0l46 0 0-16-46 0z m-53 0l46 0 0-16-46 0z m80-22l45 0 0-16-45 0z m-53 0l46 0 0-16-46 0z m-27 0l20 0 0-16-20 0z m-69 212l-8-45-16 3 9 45z m27-9l-17-43-14 6 17 43z m24-14l-25-39-13 9 25 39z m21-18l-31-33-12 10 32 34z m17-20l-36-28-10 12 37 28z m13-24l-40-21-8 14 41 21z m9-25l-43-14-5 15 43 14z m4-27l-45-6-2 16 45 5z m34-120l45 0 0-16-45 0z m-53 0l46 0 0-16-46 0z m-27 0l20 0 0-16-20 0z m106-22l19 0 0-16-19 0z m-53 0l46 0 0-16-46 0z m-53 0l46 0 0-16-46 0z m80-22l45 0 0-16-45 0z m-53 0l46 0 0-16-46 0z m-27 0l20 0 0-16-20 0z m80 89l45 0 0-16-45 0z m-53 0l46 0 0-16-46 0z m-27 0l20 0 0-16-20 0z m106-23l19 0 0-15-19 0z m-53 0l46 0 0-15-46 0z m-53 0l46 0 0-15-46 0z m80 67l45 0 0-15-45 0z m-53 0l46 0 0-15-46 0z m-27 0l20 0 0-15-20 0z m106-22l19 0 0-16-19 0z m-53 0l46 0 0-16-46 0z m-53 0l46 0 0-16-46 0z m80 67l45 0 0-16-45 0z m26-22l19 0 0-16-19 0z m-53 0l46 0 0-16-46 0z m-53 0l46 0 0-16-46 0z m80 66l45 0 0-15-45 0z m26-22l19 0 0-16-19 0z m-53 0l46 0 0-16-46 0z m27 67l45 0 0-16-45 0z m-53 0l46 0 0-16-46 0z m79-22l19 0 0-16-19 0z m-53 0l46 0 0-16-46 0z m27 67l45 0 0-16-45 0z m-53 0l46 0 0-16-46 0z m79-23l19 0 0-15-19 0z m-53 0l46 0 0-15-46 0z m-53 0l46 0 0-15-46 0z m80 67l45 0 0-16-45 0z m-53 0l46 0 0-16-46 0z m79-22l19 0 0-16-19 0z m-53 0l46 0 0-16-46 0z m-53 0l46 0 0-16-46 0z m-26-22l46 0 0-16-46 0z m-26 22l46 0 0-16-46 0z m-50 0l43 0 0-16-43 0z m76 22l46 0 0-16-46 0z m-52 0l46 0 0-16-46 0z m-47 0l40 0 0-16-40 0z m47-46l0 2 46 0 0-16-4 0c-13 6-27 11-42 14z m54-21l18 0 0-12c-6 5-12 9-18 12z m29-22l15 0 0-16-1 0c-4 6-9 11-14 16z m19-22l22 0 0-16-12 0c-3 5-6 11-10 16z m14-23l35 0 0-15-29 0c-2 5-4 10-6 15z m13-44l22 0 0-16-20 0c0 5-1 11-2 16z"/>
<glyph unicode="&#100;" d="M58 382l0-257 410 0 0 257z m199-171c-19 3-34 21-34 42 0 22 15 39 34 42z m12 84c19-3 34-20 34-42 0-21-15-39-34-42z m-200 14l44 0 0-111-44 0z m0-123l55 0 0 28c18 3 32 19 32 39 0 20-14 36-32 39l0 28-55 0 0 50 188 0 0-63c-25-3-45-26-45-54 0-28 20-50 45-53l0-64-188 0z m55 95c12-3 20-14 20-28 0-13-8-24-20-27z m145-145l0 64c25 3 45 26 45 53 0 28-20 51-45 54l0 63 188 0 0-50-56 0 0-28c-18-3-32-19-32-39 0-20 14-36 32-39l0-28 56 0 0-50-188 0z m186 173l0-111-43 0 0 111z m-54-83c-12 3-21 14-21 27 0 14 9 25 21 28z"/>
<glyph unicode="&#101;" d="M171 427c0-24-19-43-43-43-24 0-43 19-43 43 0 23 19 42 43 42 24 0 43-19 43-42z m192 0c0-24-19-43-43-43-24 0-43 19-43 43 0 23 19 42 43 42 24 0 43-19 43-42z m-30-109l-49-126-98 38 42 107 19 21 67-17z m-328 189l2-2c1 0 1 0 2 0l2-1c0 0 1 0 1 0l3-1c1 0 2-2 1-3l0-2m-3 1l-3-9m1 11l-3-6"/>
<glyph unicode="&#102;" d="M39 320l20 0 0-197-20 0z m59 0l20 0 0-197-20 0z m60 0l19 0 0-197-19 0z m59 0l19 0 0-197-19 0z m59 0l19 0 0-197-19 0z m59 0l19 0 0-197-19 0z m59 0l20 0 0-197-20 0z m59 0l20 0 0-197-20 0z m39-256l-472 0 0 59 472 0z m-453 20l434 0 0 19-434 0z m473-60l-512 0 0 60 512 0z m-492 20l472 0 0 20-472 0z m462 276c0 0 0 0 0 0l-452 0c-4 0-8 3-9 7-1 4 0 9 4 11l226 146c3 2 7 2 10 0l225-145c3-2 6-5 6-9 0-6-4-10-10-10z m-419 20l385 0-192 124z"/>
<glyph unicode="&#103;" d="M101 445l314 0 0-35-314 0z m411-177l-128 0-37 127-53 0 37-127-145 0 37 127-52 0-37-127-134 0 0-32 124 0-49-168 52 0 49 168 165 0 49-168 52 0-49 168 119 0z m-512 54l95 0 0-28-95 0z m417 0l95 0 0-28-95 0z"/>
<glyph unicode="&#104;" d="M343 286c15 0 24 6 30 11 4 4 7 6 14 6 6 0 9-2 13-6 7-5 15-11 30-11 15 0 24 6 30 11 4 4 7 6 14 6 7 0 12 6 12 13 0 7-5 13-12 13-16 0-24-7-30-12-5-3-7-6-14-6-7 0-9 2-14 6-6 5-14 12-29 12-16 0-24-7-30-12-5-3-7-6-14-6-6 0-9 2-14 6-2 2-5 5-9 7l0 17 22 22c5 5 5 13 0 18-5 5-13 5-18 0l-26-26c-2-2-3-5-3-9l0-179c0-4 1-7 3-9l26-26c3-2 6-3 9-3 4 0 7 1 10 3 5 5 5 13 0 18l-22 22 0 18c5-4 12-7 23-7 15 0 23 7 29 12 5 3 7 6 14 6 7 0 9-2 14-6 6-5 14-12 30-12 15 0 23 7 29 12 5 3 7 6 14 6 7 0 13 5 13 13 0 7-6 12-13 12-15 0-23-6-30-11-4-4-7-6-13-6-7 0-10 2-14 6-6 5-15 11-30 11-15 0-23-6-30-11-4-4-7-6-13-6-7 0-10 2-14 6-3 2-6 5-9 7l0 20c5-4 12-7 23-7 15 0 23 7 29 11 5 4 7 6 14 6 7 0 9-2 14-6 6-4 14-11 30-11 15 0 23 7 29 11 5 4 7 6 14 6 7 0 13 6 13 13 0 7-6 13-13 13-15 0-23-7-30-11-4-4-7-6-13-6-7 0-10 2-14 6-6 4-15 11-30 11-15 0-23-7-30-11-4-4-7-6-13-6-7 0-10 2-14 6-3 2-6 4-9 6l0 20c5-4 12-7 22-7z m-155 94c-5 6-13 6-18 0-5-5-5-13 0-18l23-22 0-16c-4-2-7-5-10-7-4-3-7-6-14-6-6 0-9 2-13 6-6 5-15 12-30 12-15 0-24-7-30-12-4-3-7-6-14-6-6 0-9 2-13 6-7 5-15 12-30 12-7 0-13-6-13-13 0-7 6-13 13-13 6 0 9-2 14-6 6-5 14-11 29-11 16 0 24 6 30 11 5 4 7 6 14 6 7 0 9-2 14-6 6-5 14-11 29-11 11 0 18 3 24 6l0-20c-4-2-7-4-10-6-4-4-7-6-14-6-6 0-9 2-13 6-6 4-15 11-30 11-15 0-24-7-30-11-4-4-7-6-14-6-6 0-9 2-13 6-7 4-15 11-30 11-7 0-13-6-13-13 0-7 6-13 13-13 6 0 9-2 14-6 6-4 14-11 29-11 16 0 24 7 30 11 5 4 7 6 14 6 7 0 9-2 14-6 6-4 14-11 29-11 11 0 18 3 24 7l0-20c-4-2-7-5-10-7-4-4-7-6-14-6-6 0-9 2-13 6-6 5-15 11-30 11-15 0-24-6-30-11-4-4-7-6-14-6-6 0-9 2-13 6-7 5-15 11-30 11-7 0-13-5-13-13 0-7 6-12 13-12 6 0 9-2 14-6 6-5 14-12 29-12 16 0 24 7 30 12 5 3 7 6 14 6 7 0 9-2 14-6 6-5 14-12 29-12 11 0 18 3 24 7l0-19-23-22c-5-5-5-13 0-17 3-3 6-4 10-4 3 0 6 1 9 4l26 25c2 3 3 6 3 9l0 180c0 3-1 6-3 9z"/>
<glyph unicode="&#105;" d="M256 488c-128 0-232-104-232-232 0-40 10-77 28-110 0 0 0-1 0-1 40-72 116-121 204-121 83 0 160 45 201 117 20 35 31 74 31 115 0 128-104 232-232 232z m90-44c-32-18-57-41-75-68-23-35-32-74-28-117-23-12-48-21-74-24 0 0-1 0-2 0-5 17-7 35-7 53 0 72 47 128 96 176 0 0-1 0 0 0 32 0 63-7 90-20z m-186-238c4 1 9 1 13 2 30 3 58 13 85 28 21-13 40-31 56-51-38-32-85-50-135-50-40 0-79 12-112 34-8 17-14 36-17 55 29-12 60-18 92-18 6 0 12 0 18 0z m98 46z m-42 209c-43-46-84-102-84-173 0-18 2-37 7-55-32 1-63 9-92 23 1 102 73 186 169 205z m-120-338c26-10 54-15 83-15 56 0 108 19 150 54 16-27 25-57 27-89-30-16-64-25-100-25-64 0-122 29-160 75z m287-33c-5 33-16 65-34 93-20 32-47 58-78 78-3 28 1 54 12 78 35-11 68-32 93-60 33-37 55-87 55-137-14-20-30-37-48-52z m69 95c-8 42-27 81-55 113-27 30-62 53-100 66 17 26 43 47 77 64 55-38 91-101 91-172 0-24-5-48-13-71z"/>
<glyph unicode="&#106;" d="M194 477c6-17-3-36-20-42-17-6-36 3-42 20-6 17 3 36 20 42 17 6 36-2 42-20z m241-224l0 28-25 0 0-29c-18-5-32-23-32-43l91 0c0 21-14 38-34 44z m-111-109c-1 0-2 0-3 1-2 1-4 2-5 4-1 2-1 5 0 7 2 4 7 6 11 4 4-1 7-6 5-11-1-3-4-5-8-5z m-28 11c-1 0-2 0-3 1-2 1-4 2-5 4-1 2-1 5 0 7 2 4 7 6 11 4 4-1 7-6 5-11-1-3-4-5-8-5z m-28 11c-1 0-2 0-3 1-4 1-6 6-5 11 2 4 7 6 11 4 2 0 4-2 5-4 1-2 1-4 0-7-1-3-4-5-8-5z m-28 11c-1 0-2 0-3 1-4 1-6 6-5 11 2 4 7 6 11 4 5-1 7-6 5-11-1-3-4-5-8-5z m-28 11c-1 0-2 0-3 1-4 1-6 6-5 11 2 4 7 6 11 4 5-1 7-6 5-11-1-3-4-5-8-5z m112 21c-3 0-7 2-8 5-1 2-1 5 0 7 1 2 3 3 5 4 4 2 9-1 11-5 2-4-1-9-5-11-1 0-2 0-3 0z m-10 28c-4 0-7 2-8 6-1 2-1 4 0 6 1 2 3 4 5 4 4 2 9 0 11-5 1-4-1-9-5-10-1-1-2-1-3-1z m-11 28c-3 0-6 2-8 6 0 2 0 4 1 6 1 2 2 4 4 5 5 1 10-1 11-5 1-3 1-5 0-7-1-2-3-3-5-4-1-1-2-1-3-1z m-10 28c-4 0-7 3-8 6-1 4 1 9 5 11 4 1 9-1 11-5 1-2 1-5 0-7-1-2-3-3-5-4-1 0-2-1-3-1z m-10 29c-4 0-7 2-8 5-1 2-1 5 0 7 1 2 3 3 5 4 4 2 9-1 10-5 1-2 1-4 0-7-1-2-2-3-5-4 0 0-1 0-2 0z m-11 28c-3 0-6 2-8 5 0 2 0 5 1 7 1 2 2 3 4 4 5 2 10-1 11-5 2-4 0-9-5-11-1 0-2 0-3 0z m52-269c0 0-1 1-2 1-2 0-4 1-5 3-1 2-2 4-1 6 1 5 5 8 10 7 2 0 4-2 5-3 1-2 2-4 1-7 0-4-4-7-8-7z m-30 6c0 0-1 0-1 0-2 1-4 2-5 4-2 1-2 4-2 6 1 4 5 7 10 7 5-1 8-6 7-10-1-4-4-7-9-7z m-29 5c-1 0-1 0-2 1-2 0-4 1-5 3-1 2-2 4-1 6 1 5 5 8 9 7 3 0 5-2 6-3 1-2 2-4 1-7 0-4-4-7-8-7z m-30 6c0 0-1 0-1 0-2 0-4 2-6 4-1 1-1 4-1 6 1 4 5 7 10 7 5-1 8-6 7-10-1-4-5-7-9-7z m-29 5c-1 0-1 0-2 1-2 0-4 1-5 3-1 2-2 4-1 6 0 5 5 8 9 7 3 0 5-2 6-3 1-2 2-5 1-7-1-4-4-7-8-7z m-30 6c0 0-1 0-1 0-2 0-4 2-6 4-1 1-1 4-1 6 1 4 5 7 10 7 2-1 4-2 5-4 2-2 2-4 2-6-1-4-5-7-9-7z m-29 5c-1 0-1 0-2 1-2 0-4 1-5 3-1 2-2 4-1 6 0 5 5 8 9 7 3 0 4-2 6-3 1-2 1-5 1-7-1-4-4-7-8-7z m-30 6c0 0-1 0-1 0-2 0-4 2-6 3-1 2-1 5-1 7 1 4 5 7 10 6 2 0 4-1 5-3 2-2 2-4 2-6-1-4-5-7-9-7z m-29 5c-1 0-1 0-2 0-2 1-4 2-5 4-1 2-2 4-2 6 1 5 6 8 10 7 5-1 8-5 7-10-1-4-4-7-8-7z m236-13c-1 0-1 0-2 1-2 0-4 1-5 3-1 2-2 5-1 7 1 4 6 7 10 6 2-1 4-2 5-4 1-2 2-4 1-6-1-4-4-7-8-7z m-29 8c-1 0-1 0-2 0-2 0-4 2-5 4-1 2-2 4-1 6 1 4 5 7 10 6 4-1 7-6 6-10-1-4-4-6-8-6z m-29 7c-1 0-2 0-2 0-2 1-4 2-5 4-2 2-2 4-1 6 1 5 5 7 10 6 4-1 7-5 6-10-1-4-4-6-8-6z m-29 7c-1 0-2 0-2 0-3 1-4 2-6 4-1 2-1 4-1 6 2 5 6 8 11 7 2-1 4-2 5-4 1-2 1-4 1-7-1-3-5-6-8-6z m-30 7c0 0-1 0-2 0-4 2-7 6-6 11 1 4 6 7 10 6 3-1 4-2 6-4 1-2 1-4 1-6-1-4-5-7-9-7z m-29 7c0 0-1 1-2 1-2 0-4 2-5 3-1 2-1 5-1 7 1 4 6 7 10 6 2-1 4-2 5-4 2-2 2-4 1-6 0-4-4-7-8-7z m318 22l0 29-146 0 0-29 29 0 0-32-32 0 0-69 32 0 0-53-116 0 0-15 233 0 0 15-27 0 0 154z m-261 226c8 2 13 6 16 12l32 73c2 5 2 16-6 20-9 4-18-1-21-8l-27-58-78-13-97 82c-7 6-17 5-23-2-6-7-5-18 2-23l91-78-36-79c-4-7-5-15-4-23 0-6 2-11 5-16 0 0 26-54 26-54l-65 0c0 0 0 0 0 0-13 0-23-10-23-23 0-12 10-22 22-22l102-1c0 0 0 0 0 0 8 0 15 4 20 11 4 7 4 15 1 22l-26 53 59 25 18-45c3-9 16-16 27-12 11 4 17 16 13 27l-26 71c-3 5-3 8-11 12-6 3-18-1-19-2l-43-15 26 55z m89-221c-2 0-4 0-5 2-2 1-3 3-3 5-1 2 0 5 1 6 3 4 9 5 12 2 2-1 3-3 3-6 1-2 0-4-1-6-2-2-4-3-7-3z m-24 18c-2 0-3 1-5 2-4 3-4 8-2 12 3 3 9 4 12 1 4-3 5-8 2-12-2-2-4-3-7-3z m-24 18c-2 0-3 1-5 2-4 3-4 8-1 12 2 3 8 4 11 1 4-2 5-8 2-11-2-2-4-4-7-4z"/>
</font>
</defs>
</svg>
